<svg width="193" height="70" viewBox="0 0 193 70" fill="none" xmlns="http://www.w3.org/2000/svg">
<path fill-rule="evenodd" clip-rule="evenodd" d="M26.952 5.32855C20.3478 2.42245 13.8831 9.66522 17.5179 15.8982C19.1434 18.6857 18.7892 22.2028 16.6405 24.6102C11.8358 29.9932 16.7264 38.3796 23.7775 36.8488C26.9308 36.1642 30.1664 37.5879 31.7919 40.3754C35.4267 46.6084 44.9139 44.5487 45.637 37.3696C45.9603 34.1591 48.3143 31.5218 51.4676 30.8372C58.5187 29.3064 59.4916 19.6471 52.8873 16.741C49.9338 15.4413 48.153 12.3877 48.4764 9.17709C49.1994 1.99804 40.3135 -1.9121 35.5088 3.47089C33.36 5.87823 29.9056 6.6282 26.952 5.32855ZM20.3012 50.8182H28.1989C28.341 49.0095 28.1658 47.4044 27.6733 46.0029C27.1809 44.6014 26.4139 43.4224 25.3722 42.4659C24.34 41.5 23.0663 40.7661 21.5512 40.2642C20.0455 39.7623 18.341 39.5114 16.4375 39.5114C13.9186 39.5114 11.5417 40.0559 9.30686 41.1449C7.07201 42.2339 5.17334 43.8533 3.61084 46.0029C2.04834 48.1525 1.00193 50.8182 0.471631 54C-0.0586718 57.2955 0.116518 60.0891 0.997199 62.3807C1.88735 64.6724 3.31728 66.4148 5.28697 67.608C7.26614 68.8012 9.61936 69.3978 12.3466 69.3978C14.43 69.3978 16.305 69.0663 17.9716 68.4035C19.6383 67.7406 21.0872 66.8741 22.3182 65.804C23.5493 64.7245 24.5531 63.5455 25.3296 62.2671C26.1061 60.9792 26.6459 59.7197 26.9489 58.4887H18.9944C18.7955 59.0947 18.5067 59.6487 18.1279 60.1506C17.7586 60.643 17.3088 61.0692 16.7785 61.429C16.2576 61.7794 15.661 62.0493 14.9887 62.2387C14.3258 62.4281 13.5966 62.5228 12.8012 62.5228C11.608 62.5228 10.6374 62.2434 9.88925 61.6847C9.15061 61.126 8.65345 60.2832 8.39777 59.1563C8.15156 58.0294 8.16103 56.6137 8.42618 54.9091C8.72921 53.1478 9.24057 51.6326 9.96027 50.3637C10.68 49.0853 11.5843 48.1052 12.6733 47.4233C13.7624 46.732 14.9981 46.3864 16.3807 46.3864C17.1004 46.3864 17.7207 46.4906 18.2415 46.6989C18.7624 46.9072 19.1838 47.2103 19.5057 47.608C19.8277 47.9963 20.055 48.4603 20.1875 49C20.3201 49.5398 20.358 50.1459 20.3012 50.8182ZM32.549 47.1819L28.9127 69H36.7536L38.6286 57.6364C38.7801 56.8031 39.0831 56.0786 39.5377 55.4631C40.0017 54.8381 40.5604 54.3552 41.2138 54.0142C41.8767 53.6639 42.5869 53.4887 43.3445 53.4887C43.7706 53.4887 44.2583 53.5218 44.8076 53.5881C45.3568 53.6449 45.8161 53.7444 46.1854 53.8864L47.3218 47.1819C47.0093 47.0966 46.692 47.0303 46.3701 46.983C46.0576 46.9262 45.7309 46.8978 45.39 46.8978C44.2252 46.8978 43.1504 47.2529 42.1655 47.9631C41.1807 48.6733 40.3615 49.7955 39.7081 51.3296H39.4809L40.1627 47.1819H32.549ZM49.6087 68.0625C51.1428 68.9527 53.0746 69.3978 55.4042 69.3978C57.4307 69.3978 59.2441 69.0947 60.8445 68.4887C62.4543 67.8731 63.8085 67.0114 64.907 65.9035C66.015 64.786 66.8246 63.4697 67.336 61.9546H60.1769C59.9496 62.3713 59.6466 62.7264 59.2678 63.0199C58.8985 63.304 58.4723 63.5218 57.9894 63.6733C57.5159 63.8154 57.014 63.8864 56.4837 63.8864C55.7072 63.8864 55.0727 63.7302 54.5803 63.4177C54.0879 63.1052 53.7422 62.6743 53.5434 62.125C53.3445 61.5758 53.3019 60.9508 53.4155 60.25L53.4794 59.9091H67.6769L67.961 58.091C68.2451 56.358 68.2451 54.805 67.961 53.4319C67.6864 52.0493 67.1561 50.8703 66.3701 49.8949C65.5841 48.9195 64.5661 48.1762 63.3161 47.6648C62.0756 47.1535 60.6314 46.8978 58.9837 46.8978C56.7299 46.8978 54.6939 47.3665 52.8758 48.304C51.067 49.2415 49.5661 50.5531 48.3729 52.2387C47.1892 53.9243 46.4079 55.894 46.0292 58.1478C45.6314 60.4963 45.7451 62.5133 46.3701 64.1989C46.9951 65.875 48.0746 67.1629 49.6087 68.0625ZM54.292 55.591H61.1428C61.2375 54.966 61.1759 54.4167 60.9581 53.9432C60.7498 53.4603 60.4136 53.0862 59.9496 52.8211C59.4951 52.5464 58.9458 52.4091 58.3019 52.4091C57.6579 52.4091 57.0519 52.5464 56.4837 52.8211C55.925 53.0957 55.4468 53.4792 55.049 53.9716C54.6831 54.4357 54.4308 54.9755 54.292 55.591ZM71.7998 68.6591C72.7941 69.1137 73.9825 69.341 75.3651 69.341C76.3121 69.341 77.1975 69.2273 78.0213 69C78.8547 68.7728 79.6217 68.4082 80.3225 67.9063C81.0327 67.4044 81.6719 66.7463 82.2401 65.9319H82.4106L81.8992 69H89.2287L91.7287 54.0569C91.8992 53.0436 91.8234 52.1061 91.5015 51.2444C91.189 50.3731 90.6445 49.6156 89.8679 48.9716C89.1009 48.3182 88.1302 47.8116 86.956 47.4517C85.7818 47.0824 84.4181 46.8978 82.8651 46.8978C80.6871 46.8978 78.8121 47.2387 77.2401 47.9205C75.6776 48.5928 74.4229 49.4925 73.4759 50.6194C72.5384 51.7368 71.9181 52.9584 71.6151 54.2841H78.831C79.0299 53.6023 79.3945 53.1004 79.9248 52.7785C80.4645 52.4565 81.1037 52.2955 81.8424 52.2955C82.5242 52.2955 83.0545 52.447 83.4333 52.75C83.8215 53.0531 83.9731 53.4887 83.8878 54.0569V54.1137C83.8121 54.5303 83.5848 54.8618 83.206 55.108C82.8272 55.3542 82.2543 55.5483 81.4873 55.6904C80.7202 55.8324 79.7212 55.9508 78.4901 56.0455C77.3537 56.1307 76.2742 56.3201 75.2515 56.6137C74.2382 56.8978 73.3244 57.3097 72.51 57.8495C71.6956 58.3892 71.0138 59.0805 70.4645 59.9233C69.9153 60.7661 69.5412 61.7841 69.3424 62.9773C69.0962 64.4167 69.1956 65.6099 69.6407 66.5569C70.0952 67.4944 70.8149 68.1951 71.7998 68.6591ZM80.5071 64.0285C79.939 64.2747 79.3613 64.3978 78.7742 64.3978C78.0924 64.3978 77.5668 64.2368 77.1975 63.9148C76.8376 63.5834 76.7003 63.1194 76.7856 62.5228C76.8424 62.144 76.9892 61.8031 77.2259 61.5C77.4626 61.1875 77.7941 60.9271 78.2202 60.7188C78.6463 60.501 79.1719 60.3447 79.7969 60.25C80.1094 60.1932 80.4124 60.1364 80.706 60.0796C81.009 60.0228 81.2931 59.9612 81.5583 59.8949C81.8329 59.8286 82.0933 59.7624 82.3395 59.6961C82.5952 59.6203 82.8272 59.5398 83.0356 59.4546L82.7515 61.2728C82.6378 61.9356 82.3774 62.4991 81.9702 62.9631C81.563 63.4271 81.0753 63.7822 80.5071 64.0285ZM108.657 52.8637L109.623 47.1819H105.858L106.725 41.9546H98.8843L98.019 47.1819H95.2479L94.282 52.8637H97.0785L95.4468 62.7216C95.1627 64.2368 95.2384 65.501 95.674 66.5142C96.1191 67.518 96.9146 68.2567 98.0604 68.7302C99.2157 69.2036 100.712 69.3978 102.549 69.3125C103.43 69.2652 104.202 69.1658 104.864 69.0142C105.537 68.8722 106.072 68.7444 106.469 68.6307L106.242 63.1194C106.072 63.1478 105.821 63.1951 105.489 63.2614C105.158 63.3182 104.879 63.3466 104.651 63.3466C104.31 63.3466 104.036 63.2993 103.827 63.2046C103.629 63.1004 103.496 62.9489 103.43 62.75C103.363 62.5417 103.354 62.286 103.401 61.983L104.915 52.8637H108.657ZM120.663 47.1819H112.822L109.186 69H117.027L120.663 47.1819ZM114.513 43.858C115.166 44.5588 116.023 44.9091 117.084 44.9091C118.154 44.9091 119.12 44.5588 119.982 43.858C120.853 43.1478 121.364 42.305 121.516 41.3296C121.677 40.3353 121.44 39.4925 120.805 38.8012C120.171 38.1004 119.319 37.75 118.249 37.75C117.188 37.75 116.222 38.1004 115.351 38.8012C114.48 39.4925 113.959 40.3353 113.788 41.3296C113.618 42.305 113.859 43.1478 114.513 43.858ZM126.59 69H135.681L146.647 47.1819H138.124L132.215 61.6137H131.988L130.852 47.1819H122.897L126.59 69ZM149.179 68.0625C150.713 68.9527 152.645 69.3978 154.974 69.3978C157.001 69.3978 158.814 69.0947 160.415 68.4887C162.025 67.8731 163.379 67.0114 164.477 65.9035C165.585 64.786 166.395 63.4697 166.906 61.9546H159.747C159.52 62.3713 159.217 62.7264 158.838 63.0199C158.469 63.304 158.043 63.5218 157.56 63.6733C157.086 63.8154 156.584 63.8864 156.054 63.8864C155.277 63.8864 154.643 63.7302 154.151 63.4177C153.658 63.1052 153.313 62.6743 153.114 62.125C152.915 61.5758 152.872 60.9508 152.986 60.25L153.05 59.9091H167.247L167.531 58.091C167.815 56.358 167.815 54.805 167.531 53.4319C167.257 52.0493 166.726 50.8703 165.94 49.8949C165.154 48.9195 164.136 48.1762 162.886 47.6648C161.646 47.1535 160.202 46.8978 158.554 46.8978C156.3 46.8978 154.264 47.3665 152.446 48.304C150.637 49.2415 149.136 50.5531 147.943 52.2387C146.76 53.9243 145.978 55.894 145.599 58.1478C145.202 60.4963 145.315 62.5133 145.94 64.1989C146.565 65.875 147.645 67.1629 149.179 68.0625ZM153.862 55.591H160.713C160.808 54.966 160.746 54.4167 160.528 53.9432C160.32 53.4603 159.984 53.0862 159.52 52.8211C159.065 52.5464 158.516 52.4091 157.872 52.4091C157.228 52.4091 156.622 52.5464 156.054 52.8211C155.495 53.0957 155.017 53.4792 154.619 53.9716C154.253 54.4357 154.001 54.9755 153.862 55.591ZM173.515 68.0625C175.049 68.9527 176.981 69.3978 179.31 69.3978C181.337 69.3978 183.15 69.0947 184.751 68.4887C186.361 67.8731 187.715 67.0114 188.813 65.9035C189.921 64.786 190.731 63.4697 191.242 61.9546H184.083C183.856 62.3713 183.553 62.7264 183.174 63.0199C182.805 63.304 182.379 63.5218 181.896 63.6733C181.422 63.8154 180.92 63.8864 180.39 63.8864C179.613 63.8864 178.979 63.7302 178.487 63.4177C177.994 63.1052 177.648 62.6743 177.45 62.125C177.251 61.5758 177.208 60.9508 177.322 60.25L177.386 59.9091H191.583L191.867 58.091C192.151 56.358 192.151 54.805 191.867 53.4319C191.593 52.0493 191.062 50.8703 190.276 49.8949C189.49 48.9195 188.472 48.1762 187.222 47.6648C185.982 47.1535 184.538 46.8978 182.89 46.8978C180.636 46.8978 178.6 47.3665 176.782 48.304C174.973 49.2415 173.472 50.5531 172.279 52.2387C171.095 53.9243 170.314 55.894 169.935 58.1478C169.538 60.4963 169.651 62.5133 170.276 64.1989C170.901 65.875 171.981 67.1629 173.515 68.0625ZM178.198 55.591H185.049C185.144 54.966 185.082 54.4167 184.864 53.9432C184.656 53.4603 184.32 53.0862 183.856 52.8211C183.401 52.5464 182.852 52.4091 182.208 52.4091C181.564 52.4091 180.958 52.5464 180.39 52.8211C179.831 53.0957 179.353 53.4792 178.955 53.9716C178.589 54.4357 178.337 54.9755 178.198 55.591Z" fill="white"/>
</svg>
